<?xml version="1.0" encoding="UTF-8"?>
<!DOCTYPE svg PUBLIC "-//W3C//DTD SVG 1.1//EN" "http://www.w3.org/Graphics/SVG/1.1/DTD/svg11.dtd">
<!-- Creator: CorelDRAW 2018 (64 Bit Versão de avaliação) -->
<svg xmlns="http://www.w3.org/2000/svg" xml:space="preserve" width="91.4398mm" height="91.44mm" version="1.1" style="shape-rendering:geometricPrecision; text-rendering:geometricPrecision; image-rendering:optimizeQuality; fill-rule:evenodd; clip-rule:evenodd"
viewBox="0 0 9143.98 9144"
 xmlns:xlink="http://www.w3.org/1999/xlink">
 <defs>
  <style type="text/css">
   <![CDATA[
    .fil0 {fill:#FEFEFE;fill-rule:nonzero}
    .fil1 {fill:#F14A54;fill-rule:nonzero}
   ]]>
  </style>
 </defs>
 <g id="Camada_x0020_1">
  <metadata id="CorelCorpID_0Corel-Layer"/>
  <g id="_2491680806960">
   <path class="fil0" d="M1775.6 3800.1c5.17,10.34 8.62,18.1 10.34,23.27 1.73,5.17 1.73,10.34 0,15.51 -1.72,5.17 -5.17,11.2 -10.34,18.1 -5.17,6.89 -12.92,17.23 -23.27,31.02 -5.17,1.72 -30.59,21.98 -76.26,60.75 -45.67,38.78 -97.81,98.68 -156.41,179.68 -58.6,81.01 -116.77,183.12 -174.51,306.36 -57.73,123.23 -100.39,269.29 -127.97,438.2 0,6.89 -2.15,26.28 -6.46,58.17 -4.31,31.88 -8.62,69.8 -12.93,113.75 -4.31,43.95 -7.32,92.21 -9.04,144.77 -1.73,52.57 0.86,102.98 7.75,151.24 12.07,31.03 25.42,55.16 40.07,72.39 14.65,17.24 41.8,37.92 81.44,62.05 46.53,8.61 94.79,3.44 144.77,-15.51 49.99,-18.96 99.11,-46.97 147.36,-84.03 48.26,-37.05 93.94,-80.57 137.02,-130.55 43.09,-49.98 81.44,-101.69 115.05,-155.12 33.61,-53.43 60.75,-106.43 81.43,-158.99 20.69,-52.57 31.89,-99.54 33.61,-140.9 -12.06,0 -32.31,6.03 -60.75,18.1 -28.44,12.06 -60.32,26.28 -95.66,42.65 -35.33,16.38 -71.09,33.18 -107.28,50.42 -36.2,17.23 -67.22,30.16 -93.07,38.78 -22.41,-10.35 -41.8,-23.27 -58.17,-38.78 -16.38,-15.51 -22.84,-40.51 -19.39,-74.98 15.51,0 40.07,-6.03 73.68,-18.09 33.61,-12.07 72.82,-27.15 117.63,-45.24 44.81,-18.1 92.21,-38.78 142.19,-62.05 49.98,-23.27 98.67,-46.54 146.06,-69.8 47.4,-23.27 90.49,-45.68 129.27,-67.22 38.78,-21.54 69.37,-40.07 91.78,-55.58 15.51,0 31.88,-5.61 49.12,-16.81 17.23,-11.2 33.6,-16.8 49.12,-16.8 -3.45,18.96 -15.95,41.79 -37.49,68.51 -21.54,26.71 -45.67,52.56 -72.39,77.56 -26.71,24.99 -53.43,48.25 -80.14,69.8 -26.72,21.54 -47.83,36.62 -63.34,45.24 0,6.89 0,28.87 0,65.92 0,37.06 2.15,77.99 6.46,122.8 4.31,44.82 12.93,87.9 25.86,129.27 12.92,41.36 32.31,69.8 58.16,85.31 -10.34,34.47 -24.13,52.14 -41.36,53 -17.24,0.86 -34.47,-6.46 -51.71,-21.97 -17.23,-15.52 -31.88,-36.2 -43.95,-62.05 -12.06,-25.85 -18.95,-48.26 -20.68,-67.22 -41.36,51.71 -82.73,104.7 -124.09,159 -41.37,54.29 -88.76,112.45 -142.19,174.5 -27.58,24.13 -53,45.24 -76.27,63.34 -23.26,18.1 -46.53,34.9 -69.8,50.41 -23.27,15.51 -47.39,29.3 -72.39,41.37 -24.99,12.06 -52.99,23.26 -84.02,33.61 -34.47,10.34 -65.92,17.66 -94.36,21.97 -28.44,4.31 -55.15,4.31 -80.14,0 -24.99,-4.31 -48.69,-15.08 -71.1,-32.32 -22.4,-17.23 -44.81,-43.08 -67.21,-77.55 -39.65,-86.18 -59.9,-174.94 -60.76,-266.29 -0.86,-91.34 8.19,-192.17 27.15,-302.47 18.96,-118.92 42.22,-226.64 69.8,-323.16 27.58,-96.52 59.89,-185.71 96.95,-267.58 37.05,-81.86 80.57,-157.27 130.55,-226.21 49.98,-68.94 107.72,-135.29 173.22,-199.06 6.89,-1.73 17.23,-7.76 31.02,-18.1 13.79,-10.34 29.73,-21.11 47.83,-32.32 18.09,-11.2 37.48,-21.11 58.17,-29.73 20.68,-8.61 41.36,-12.06 62.04,-10.34zm579.1 881.58c32.74,1.72 68.94,6.46 108.58,14.22 39.64,7.75 78.42,18.09 116.33,31.02 37.92,12.93 72.82,27.58 104.71,43.95 31.88,16.37 58.17,34.9 78.85,55.58 20.68,18.96 32.75,47.83 36.19,86.61 3.45,38.78 0.86,81.44 -7.75,127.97 -8.62,46.54 -21.98,94.36 -40.07,143.48 -18.1,49.12 -38.35,93.5 -60.76,133.15 -22.4,39.64 -46.53,72.38 -72.39,98.24 -25.85,25.85 -49.98,38.77 -72.38,38.77 -37.92,0 -69.81,-9.04 -95.66,-27.14 -25.85,-18.1 -46.53,-40.07 -62.05,-65.92 -15.51,-25.86 -27.14,-53 -34.9,-81.44 -7.75,-28.44 -12.49,-53 -14.22,-73.68 -5.17,-91.35 -6.03,-172.35 -2.58,-243.02 3.45,-70.66 9.48,-129.26 18.1,-175.79 -5.17,-8.62 -10.34,-16.38 -15.52,-23.27 -5.17,-6.9 -10.34,-13.36 -15.51,-19.39 -5.17,-6.03 -11.2,-11.64 -18.09,-16.81 6.89,-3.44 13.78,-8.61 20.68,-15.51 13.79,-10.34 23.27,-20.68 28.44,-31.02zm93.07 615.29c5.17,6.9 12.06,14.22 20.68,21.98 8.62,7.75 19.39,13.79 32.31,18.09 12.93,4.31 26.29,4.74 40.08,1.3 13.78,-3.45 28.43,-12.93 43.95,-28.44 41.36,-43.09 72.38,-87.47 93.07,-133.14 20.68,-45.67 34.03,-88.76 40.07,-129.27 6.03,-40.5 5.17,-76.26 -2.59,-107.28 -7.75,-31.03 -20.25,-53.43 -37.48,-67.22 -13.79,-8.62 -25.43,-15.94 -34.91,-21.98 -9.48,-6.03 -21.54,-11.63 -36.19,-16.8 -14.65,-5.17 -33.18,-10.77 -55.58,-16.8 -22.41,-6.04 -51.71,-14.22 -87.9,-24.56 -17.24,55.15 -29.3,110.3 -36.2,165.45 -6.89,55.16 -9.91,105.57 -9.04,151.24 0.86,45.67 4.3,85.32 10.34,118.92 6.03,33.61 12.49,56.45 19.39,68.51z"/>
   <path class="fil1" d="M4050.63 3557.09l434.33 0 -449.84 1900.17 -630.81 0 -447.25 -1900.17 434.33 0 328.33 1396.04 330.91 -1396.04zm1719.21 -2.59l449.84 1902.76 -434.33 0 -51.71 -211.99 -558.41 0 -49.12 211.99 -434.33 0 447.25 -1902.76 630.81 0zm-493.79 1266.78l359.35 0 -180.96 -762.65 -178.39 762.65zm2631.81 635.98l-453.71 0 -603.66 -1085.81 0 1085.81 -423.99 0 0 -1900.17 452.42 0 604.96 1085.81 0 -1085.81 423.98 0 0 1900.17z"/>
  </g>
 </g>
</svg>
