<?xml version="1.0" encoding="UTF-8"?>
<!DOCTYPE svg PUBLIC "-//W3C//DTD SVG 1.1//EN" "http://www.w3.org/Graphics/SVG/1.1/DTD/svg11.dtd">
<!-- Creator: CorelDRAW 2018 (64 Bit Versão de avaliação) -->
<svg xmlns="http://www.w3.org/2000/svg" xml:space="preserve" width="162.56mm" height="37.2532mm" version="1.1" style="shape-rendering:geometricPrecision; text-rendering:geometricPrecision; image-rendering:optimizeQuality; fill-rule:evenodd; clip-rule:evenodd"
viewBox="0 0 16255.98 3725.32"
 xmlns:xlink="http://www.w3.org/1999/xlink">
 <defs>
  <style type="text/css">
   <![CDATA[
    .fil0 {fill:#FEFEFE;fill-rule:nonzero}
    .fil1 {fill:#F14A54;fill-rule:nonzero}
   ]]>
  </style>
 </defs>
 <g id="Camada_x0020_1">
  <metadata id="CorelCorpID_0Corel-Layer"/>
  <g id="_2873316517568">
   <path class="fil0" d="M3298.3 491.82c9.18,18.38 15.31,32.16 18.37,41.35 3.07,9.18 3.07,18.37 0,27.57 -3.06,9.19 -9.19,19.9 -18.37,32.15 -9.19,12.26 -22.97,30.63 -41.35,55.14 -9.18,3.05 -54.36,39.04 -135.53,107.96 -81.17,68.91 -173.82,175.36 -277.96,319.31 -104.13,143.95 -207.51,325.43 -310.11,544.42 -102.61,219 -178.41,478.58 -227.43,778.73 0,12.26 -3.82,46.71 -11.48,103.37 -7.65,56.66 -15.31,124.05 -22.97,202.15 -7.66,78.1 -13.02,163.87 -16.08,257.29 -3.06,93.41 1.53,182.99 13.79,268.77 21.44,55.12 45.17,98 71.21,128.63 26.03,30.63 74.26,67.38 144.72,110.27 82.69,15.3 168.46,6.12 257.27,-27.58 88.83,-33.68 176.12,-83.45 261.88,-149.31 85.76,-65.85 166.93,-143.18 243.51,-232.01 76.56,-88.83 144.72,-180.71 204.43,-275.66 59.73,-94.95 107.97,-189.13 144.72,-282.55 36.76,-93.41 56.66,-176.88 59.73,-250.38 -21.44,0 -57.43,10.71 -107.96,32.15 -50.54,21.44 -107.2,46.72 -170,75.82 -62.78,29.09 -126.33,58.96 -190.65,89.58 -64.32,30.63 -119.46,53.6 -165.39,68.92 -39.83,-18.39 -74.28,-41.35 -103.38,-68.92 -29.1,-27.57 -40.59,-71.98 -34.45,-133.23 27.56,0 71.21,-10.73 130.93,-32.17 59.72,-21.44 129.41,-48.23 209.04,-80.4 79.64,-32.15 163.86,-68.91 252.69,-110.26 88.82,-41.35 175.35,-82.69 259.57,-124.04 84.23,-41.36 160.81,-81.17 229.71,-119.46 68.92,-38.29 123.28,-71.21 163.11,-98.77 27.56,0 56.66,-9.96 87.29,-29.86 30.62,-19.91 59.71,-29.87 87.29,-29.87 -6.12,33.69 -28.33,74.28 -66.62,121.75 -38.29,47.48 -81.17,93.41 -128.63,137.83 -47.49,44.41 -94.96,85.76 -142.44,124.05 -47.47,38.29 -84.99,65.08 -112.55,80.4 0,12.24 0,51.3 0,117.15 0,65.86 3.82,138.6 11.48,218.23 7.66,79.64 22.97,156.2 45.95,229.71 22.97,73.52 57.42,124.05 103.37,151.62 -18.38,61.26 -42.88,92.64 -73.51,94.18 -30.63,1.53 -61.26,-11.48 -91.89,-39.06 -30.62,-27.56 -56.66,-64.32 -78.1,-110.25 -21.44,-45.95 -33.69,-85.77 -36.76,-119.46 -73.51,91.88 -147.01,186.06 -220.52,282.55 -73.51,96.48 -157.75,199.86 -252.68,310.11 -49.02,42.88 -94.18,80.4 -135.54,112.57 -41.35,32.15 -82.69,62.02 -124.05,89.58 -41.35,27.58 -84.22,52.07 -128.64,73.51 -44.41,21.44 -94.18,41.36 -149.31,59.73 -61.26,18.37 -117.15,31.4 -167.69,39.06 -50.54,7.65 -98.02,7.65 -142.42,0 -44.41,-7.66 -86.52,-26.81 -126.35,-57.43 -39.81,-30.63 -79.63,-76.58 -119.46,-137.83 -70.44,-153.15 -106.43,-310.89 -107.96,-473.22 -1.52,-162.33 14.55,-341.51 48.25,-537.53 33.69,-211.34 75.03,-402.76 124.05,-574.29 49,-171.52 106.43,-330.02 172.28,-475.51 65.85,-145.48 143.18,-279.49 232.01,-402 88.83,-122.52 191.42,-240.43 307.81,-353.76 12.26,-3.06 30.63,-13.78 55.14,-32.15 24.5,-18.39 52.83,-37.53 84.99,-57.43 32.17,-19.92 66.62,-37.52 103.38,-52.84 36.75,-15.32 73.51,-21.44 110.26,-18.38zm1029.11 1566.65c58.2,3.07 122.51,11.5 192.96,25.28 70.44,13.78 139.36,32.15 206.75,55.12 67.37,22.98 129.4,49.01 186.06,78.1 56.66,29.1 103.38,62.03 140.13,98.79 36.76,33.69 58.2,84.99 64.32,153.9 6.12,68.92 1.53,144.72 -13.78,227.42 -15.32,82.7 -39.06,167.69 -71.21,254.99 -32.17,87.29 -68.15,166.16 -107.98,236.6 -39.81,70.45 -82.69,128.63 -128.64,174.58 -45.93,45.95 -88.82,68.92 -128.63,68.92 -67.39,0 -124.05,-16.08 -170,-48.25 -45.93,-32.15 -82.69,-71.2 -110.25,-117.15 -27.58,-45.94 -48.25,-94.19 -62.03,-144.72 -13.78,-50.54 -22.21,-94.19 -25.26,-130.94 -9.19,-162.32 -10.73,-306.28 -4.6,-431.86 6.12,-125.58 16.85,-229.71 32.16,-312.41 -9.19,-15.32 -18.38,-29.1 -27.56,-41.35 -9.19,-12.24 -18.39,-23.74 -27.58,-34.45 -9.18,-10.73 -19.9,-20.67 -32.15,-29.86 12.25,-6.13 24.49,-15.32 36.75,-27.57 24.5,-18.38 41.35,-36.75 50.54,-55.14zm165.39 1093.44c9.2,12.26 21.44,25.28 36.76,39.06 15.31,13.78 34.45,24.51 57.43,32.15 22.97,7.66 46.71,8.43 71.21,2.3 24.5,-6.12 50.53,-22.97 78.1,-50.53 73.51,-76.57 128.65,-155.44 165.4,-236.6 36.76,-81.17 60.48,-157.74 71.21,-229.73 10.71,-71.98 9.18,-135.53 -4.6,-190.65 -13.78,-55.14 -35.99,-94.95 -66.61,-119.46 -24.51,-15.32 -45.18,-28.33 -62.03,-39.04 -16.85,-10.73 -38.29,-20.68 -64.32,-29.87 -26.03,-9.19 -58.96,-19.15 -98.77,-29.86 -39.82,-10.73 -91.9,-25.28 -156.21,-43.65 -30.64,98.01 -52.07,196.02 -64.32,294.03 -12.25,98.02 -17.61,187.6 -16.09,268.77 1.54,81.17 7.66,151.61 18.39,211.34 10.71,59.73 22.21,100.3 34.45,121.74z"/>
   <path class="fil1" d="M7341.25 59.96l771.85 0 -799.41 3376.8 -1121 0 -794.81 -3376.8 771.83 0 583.48 2480.92 588.06 -2480.92zm3055.22 -4.59l799.41 3381.39 -771.85 0 -91.88 -376.73 -992.37 0 -87.29 376.73 -771.84 0 794.81 -3381.39 1121.01 0zm-877.52 2251.2l638.61 0 -321.59 -1355.32 -317.02 1355.32zm4677 1130.19l-806.29 0 -1072.77 -1929.6 0 1929.6 -753.46 0 0 -3376.8 804 0 1075.06 1929.6 0 -1929.6 753.46 0 0 3376.8z"/>
  </g>
 </g>
</svg>
